<?xml version="1.0" standalone="no"?>
<!DOCTYPE svg PUBLIC "-//W3C//DTD SVG 20010904//EN"
 "http://www.w3.org/TR/2001/REC-SVG-20010904/DTD/svg10.dtd">
<svg version="1.0" xmlns="http://www.w3.org/2000/svg"
 width="606.000000pt" height="606.000000pt" viewBox="0 0 606.000000 606.000000"
 preserveAspectRatio="xMidYMid meet">
<metadata>
Created by potrace 1.11, written by Peter Selinger 2001-2013
</metadata>
<g transform="translate(0.000000,606.000000) scale(0.100000,-0.100000)"
fill="#000000" stroke="none">
<path d="M4 4201 c-7 -7 -4 -51 4 -52 4 -1 30 -2 57 -3 l50 -1 3 -216 c2 -202
4 -217 21 -222 38 -10 41 3 43 223 l3 215 55 0 c53 0 55 1 58 28 3 22 -1 27
-20 28 -124 3 -270 3 -274 0z"/>
<path d="M652 4199 c-21 -8 -22 -13 -20 -109 2 -55 1 -101 -2 -101 -3 -1 -49
-2 -102 -3 l-98 -2 -1 91 c-2 124 -1 120 -31 123 -33 4 -30 27 -30 -287 1
-203 4 -221 44 -200 16 8 18 24 18 113 l0 104 102 -1 102 -2 -2 -102 c-2 -102
2 -114 35 -119 7 -1 16 2 19 8 10 15 7 479 -2 488 -5 4 -19 4 -32 -1z"/>
<path d="M946 4196 c-173 -64 -221 -295 -87 -425 162 -158 422 -44 422 184 1
97 -56 191 -138 231 -49 23 -147 28 -197 10z m174 -66 c101 -52 132 -190 65
-292 -56 -84 -184 -104 -262 -41 -69 55 -95 134 -72 218 12 44 64 104 104 121
45 20 120 17 165 -6z"/>
<path d="M1386 4198 c-14 -8 -16 -37 -16 -247 l0 -239 25 -4 c14 -3 28 -2 30
3 3 4 6 86 7 181 l1 173 85 -175 c46 -96 89 -178 95 -182 16 -10 42 11 57 46
8 17 44 94 81 171 l68 140 0 -176 c1 -160 3 -177 19 -181 41 -11 42 -7 42 248
l0 245 -32 -3 c-37 -3 -24 17 -153 -248 l-69 -144 -43 90 c-154 324 -155 325
-197 302z"/>
<path d="M2525 4194 c-60 -31 -87 -101 -65 -169 14 -42 51 -70 114 -86 100
-25 137 -97 81 -154 -51 -50 -132 -25 -150 48 -6 22 -13 27 -37 27 -28 0 -29
-1 -22 -37 14 -77 69 -123 147 -123 108 0 180 113 133 212 -19 39 -69 70 -143
88 -50 13 -73 40 -67 84 8 65 93 91 133 40 12 -15 21 -32 21 -39 0 -16 25 -26
45 -19 19 8 19 25 1 69 -28 66 -122 95 -191 59z"/>
<path d="M2122 4150 c-12 -27 -22 -52 -22 -55 0 -2 -34 -84 -75 -180 -41 -97
-75 -182 -75 -189 0 -21 37 -26 52 -7 8 9 20 30 27 46 7 17 20 46 29 65 l17
35 93 0 c51 0 97 -2 102 -5 4 -3 20 -35 35 -72 29 -74 44 -91 69 -82 24 9 20
26 -28 143 -25 58 -67 160 -95 226 -46 111 -52 120 -78 123 -26 3 -31 -2 -51
-48z m86 -134 c18 -43 30 -82 27 -87 -7 -10 -135 -9 -135 1 0 4 9 27 19 51 11
24 26 62 35 83 9 22 18 37 20 35 2 -2 17 -39 34 -83z"/>
<path d="M2743 3523 c-8 -3 -13 -23 -13 -48 0 -35 -3 -44 -17 -43 -55 2 -191
-42 -275 -89 -186 -105 -314 -272 -367 -483 -11 -46 -21 -96 -21 -112 0 -27
-2 -28 -49 -28 -27 0 -53 -6 -58 -12 -12 -16 -5 -134 12 -203 2 -11 9 -39 15
-63 27 -113 110 -253 208 -349 121 -120 253 -190 430 -227 87 -18 249 -18 336
0 37 8 72 12 77 8 5 -3 9 -1 9 5 0 6 19 16 43 23 23 6 57 20 75 30 18 10 38
15 44 12 6 -4 8 -3 5 2 -3 6 16 22 43 37 66 37 188 158 237 234 9 15 20 30 23
33 3 3 15 25 27 50 140 291 108 654 -80 898 -136 178 -325 279 -589 317 -81
11 -103 13 -115 8z"/>
<path d="M20 3495 c-18 -22 -18 -1608 0 -1630 17 -21 113 -20 130 1 11 12 13
150 13 670 0 383 4 650 9 642 10 -14 459 -917 571 -1148 38 -80 77 -153 85
-162 18 -21 84 -24 100 -5 12 14 101 192 384 767 272 553 271 550 277 550 3 0
6 -289 5 -642 0 -397 3 -652 9 -665 9 -20 18 -23 67 -23 31 0 61 5 68 12 9 9
12 205 12 819 0 681 -2 808 -14 818 -9 7 -42 11 -88 9 l-73 -3 -110 -221 c-60
-121 -215 -435 -344 -697 -129 -263 -237 -477 -240 -477 -3 0 -71 132 -150
293 -78 160 -234 474 -345 697 l-201 405 -76 3 c-59 2 -79 -1 -89 -13z"/>
<path d="M3804 3496 c-15 -12 -16 -74 -16 -812 0 -439 3 -807 7 -816 6 -15 20
-18 70 -18 57 0 64 2 71 22 4 12 7 352 7 756 l0 734 246 -5 c270 -5 314 -12
388 -66 51 -37 99 -105 126 -179 29 -81 28 -217 -2 -292 -35 -86 -92 -154
-153 -184 -70 -33 -92 -37 -233 -43 -66 -3 -130 -9 -142 -14 -34 -13 -29 -52
16 -112 21 -29 121 -169 221 -312 101 -143 192 -270 203 -282 17 -19 31 -23
82 -23 62 0 85 11 85 41 0 13 -154 242 -197 294 -25 30 -171 241 -172 249 -1
6 11 11 26 13 176 20 307 112 384 268 107 218 70 481 -91 645 -72 74 -158 115
-278 133 -122 18 -624 20 -648 3z"/>
<path d="M5508 3499 c-209 -31 -372 -174 -417 -364 -7 -28 -15 -92 -19 -142
-9 -104 -7 -675 2 -712 28 -120 91 -237 159 -299 44 -39 135 -86 197 -100 78
-19 188 -26 403 -26 173 0 210 2 217 14 12 18 13 100 2 118 -6 9 -73 13 -263
17 -278 5 -303 7 -368 37 -81 37 -172 151 -198 248 -10 41 -11 669 -1 745 13
96 38 147 102 210 55 54 131 91 199 99 18 2 139 4 269 5 268 1 268 1 268 75 0
82 4 81 -267 81 -131 0 -259 -3 -285 -6z"/>
<path d="M5692 2768 c-17 -17 -15 -103 3 -121 12 -12 47 -15 172 -15 86 -1
165 4 175 9 14 7 18 22 18 62 0 29 -5 58 -12 65 -17 17 -339 17 -356 0z"/>
</g>
</svg>
